<?xml version="1.0" encoding="UTF-8"?><svg id="Camada_2" xmlns="http://www.w3.org/2000/svg" viewBox="0 0 762.42 190.61"><defs><style>.cls-1,.cls-2{fill:#fff;}.cls-2,.cls-3{fill-rule:evenodd;}.cls-3{fill:#f36d23;}</style></defs><g id="Camada_1-2"><path class="cls-1" d="m423.49,117.21c-2.25,1.33-5.24,2-8.93,2-10.49,0-15.71-6.29-15.71-18.87v-38.11h-10.29v-8.8h10.29v-15.71l9.57-3.35v19.06h15.07v8.8h-15.07v36.3c0,4.32.68,7.39,2.05,9.23,1.36,1.85,3.61,2.77,6.78,2.77,2.41,0,4.49-.71,6.24-2.15v8.82Zm-61.74-34.16l-13.14-38.43c-.42-1.27-.86-3.28-1.28-6.03h-.24c-.38,2.55-.84,4.55-1.34,6.03l-13.04,38.43h29.03Zm22.97,34.78h-10.87l-8.87-25.29h-35.53l-8.35,25.29h-10.9l32.12-90.19h10.17l32.24,90.19Zm360.6-38.75c0-9.21-3.47-13.83-10.41-13.83-2.95,0-5.52,1.31-7.68,3.95-2.17,2.64-3.47,5.95-3.95,9.88h22.03Zm17.11,12.22h-39.01c.62,9.34,6.1,14.02,16.41,14.02,6.58,0,12.36-1.67,17.34-5.02v14.34c-5.52,3.18-12.7,4.77-21.55,4.77-9.65,0-17.15-2.88-22.49-8.65-5.32-5.75-7.99-13.8-7.99-24.11s2.87-19.17,8.65-25.42c5.76-6.25,12.84-9.36,21.25-9.36s15.47,2.79,20.24,8.35c4.76,5.58,7.16,13.16,7.16,22.71v8.37Zm-68.34,26.54h-18.4v-36.73c0-9.36-3.19-14.02-9.57-14.02-3.03,0-5.5,1.4-7.42,4.21-1.91,2.81-2.87,6.31-2.87,10.5v36.05h-18.44v-37.12c0-9.08-3.15-13.63-9.41-13.63-3.15,0-5.68,1.33-7.56,4.01-1.89,2.68-2.85,6.33-2.85,10.95v35.79h-18.44V53.43h18.44v10.07h.24c1.91-3.44,4.59-6.25,8.03-8.39,3.45-2.17,7.22-3.24,11.3-3.24,8.45,0,14.23,3.99,17.34,12,4.57-8.01,11.24-12,20.1-12,13,0,19.5,8.63,19.5,25.91v40.06Zm-139.11-50.75c-4.37,0-7.76,1.61-10.17,4.83-2.41,3.24-3.63,7.81-3.63,13.72,0,12.37,4.65,18.55,13.92,18.55s13.26-6.35,13.26-19.04-4.47-18.06-13.38-18.06Zm-.48,52.32c-9.97,0-17.8-3.01-23.5-9.02-5.7-6.01-8.55-14.19-8.55-24.5s2.95-19,8.87-25.01c5.92-6.01,13.94-9.02,24-9.02s17.72,3.01,23.36,9.02c5.64,6.01,8.47,13.98,8.47,23.87,0,10.69-2.91,19.15-8.73,25.35-5.82,6.2-13.8,9.3-23.92,9.3Zm-45.85-1.57h-18.92v-36.73h-34.69v36.73h-18.88V27.64h18.88v35.98h34.69V27.64h18.92v90.19Zm-199.4-64.41l-24.3,69.56c-5.84,16.72-14.63,25.1-26.4,25.1-4.47,0-8.15-.54-11.04-1.63v-15.84c2.47,1.55,5.12,2.32,8.01,2.32,4.74,0,8.05-2.4,9.93-7.24l3.15-7.99-24.3-64.28h20.45l11.14,39.18c.7,2.43,1.26,5.3,1.64,8.63h.24c.36-2.45,1-5.28,1.93-8.5l11.26-39.31h18.28Zm-72.49,64.41h-18.4v-9.81h-.28c-4.57,7.58-10.65,11.38-18.28,11.38-13.88,0-20.79-9.04-20.79-27.12v-38.86h18.4v37.1c0,9.1,3.35,13.65,10.05,13.65,3.31,0,5.94-1.25,7.93-3.74,1.99-2.49,2.97-5.88,2.97-10.15v-36.86h18.4v64.41Zm-112.84-38.75v23.79h10.23c4.35,0,7.78-1.1,10.25-3.28,2.47-2.17,3.71-5.15,3.71-8.93s-1.22-6.42-3.65-8.48c-2.45-2.06-5.84-3.09-10.21-3.09h-10.33Zm0-36.48v21.38h8.29c3.89,0,6.96-1.01,9.19-3.05,2.25-2.04,3.37-4.83,3.37-8.39,0-6.63-4.61-9.94-13.8-9.94h-7.06Zm-18.88,75.23V27.64h30.5c9.35,0,16.53,1.85,21.55,5.54,5.02,3.67,7.54,8.89,7.54,15.59,0,4.87-1.53,9.12-4.59,12.77-3.07,3.65-6.96,6.18-11.72,7.6v.26c5.96.79,10.73,3.18,14.29,7.11,3.55,3.95,5.34,8.74,5.34,14.41,0,8.27-2.75,14.81-8.23,19.67-5.5,4.83-13,7.26-22.49,7.26h-32.2Z"/><path class="cls-2" d="m44.2,26.56c24.41,0,44.2,21.31,44.2,47.6,0,1.8-.1,3.59-.28,5.34l-16.72-.39c.25-1.61.38-3.26.38-4.95,0-16.41-12.35-29.71-27.59-29.71s-27.59,13.3-27.59,29.71,12.35,29.71,27.59,29.71c1.58,0,3.13-.14,4.63-.42l.42,18c-1.66.2-3.34.31-5.05.31C19.79,121.76,0,100.45,0,74.16c0-.77.02-1.54.05-2.3V0h16.56v36.97c7.56-6.51,17.15-10.41,27.59-10.41"/><path class="cls-1" d="m754.9,181.56c-.59,0-1.1-.22-1.52-.66-.42-.45-.63-.98-.63-1.59s.21-1.15.63-1.6c.42-.45.93-.67,1.52-.67s1.13.23,1.55.67c.42.45.64.98.64,1.6s-.21,1.15-.64,1.59c-.43.44-.95.66-1.55.66m-10.27-10.87l-4.78.69c-1.47.21-2.59.59-3.33,1.14-.75.54-1.13,1.51-1.13,2.89,0,1,.34,1.83,1.04,2.47.69.64,1.61.96,2.76.96,1.57,0,2.88-.58,3.9-1.72,1.03-1.15,1.54-2.61,1.54-4.36v-2.06Zm3.18,10.43h-3.18v-3.22h-.07c-1.38,2.48-3.42,3.71-6.11,3.71-1.98,0-3.52-.54-4.64-1.63-1.12-1.09-1.68-2.53-1.68-4.33,0-3.85,2.18-6.1,6.55-6.72l5.95-.87c0-3.51-1.36-5.26-4.09-5.26-2.39,0-4.55.85-6.47,2.54v-3.38c1.95-1.29,4.19-1.93,6.74-1.93,4.66,0,7,2.56,7,7.69v13.41Zm-32.25-.74v-3.54c1.73,1.33,3.64,1.99,5.72,1.99,2.79,0,4.19-.97,4.19-2.9,0-.55-.12-1.02-.36-1.39-.25-.39-.56-.72-.97-1.02-.4-.29-.89-.56-1.44-.8-.55-.23-1.14-.48-1.77-.74-.88-.36-1.65-.73-2.32-1.1-.66-.36-1.22-.78-1.67-1.24-.44-.47-.78-.99-1-1.58-.23-.59-.34-1.29-.34-2.08,0-.97.21-1.82.63-2.57.43-.74,1-1.37,1.71-1.87.71-.5,1.52-.89,2.43-1.14.91-.25,1.85-.38,2.82-.38,1.72,0,3.26.31,4.61.92v3.35c-1.46-1-3.14-1.49-5.03-1.49-.59,0-1.13.07-1.61.21-.48.14-.89.34-1.23.59-.34.25-.6.56-.79.91-.19.36-.28.75-.28,1.18,0,.54.09.98.28,1.35.19.36.46.69.83.97.36.28.8.54,1.32.76.52.23,1.1.47,1.77.74.87.35,1.67.71,2.36,1.08.7.37,1.29.78,1.79,1.25.49.46.87,1,1.13,1.6.27.61.4,1.32.4,2.15,0,1.02-.22,1.91-.65,2.66-.43.75-1.01,1.38-1.73,1.87-.73.5-1.56.87-2.5,1.11-.95.24-1.93.36-2.97.36-2.04,0-3.81-.41-5.31-1.22Zm-5.23.74h-3.18v-20.62h3.18v20.62Zm-1.55-25.86c-.56,0-1.05-.2-1.45-.61-.4-.4-.6-.91-.6-1.53s.2-1.13.6-1.54c.4-.41.89-.62,1.45-.62s1.08.21,1.49.62c.4.41.61.92.61,1.54s-.2,1.09-.61,1.51c-.41.42-.9.63-1.49.63Zm-6.43,24.91c-1.52.96-3.33,1.43-5.42,1.43-2.83,0-5.11-.96-6.85-2.87-1.73-1.91-2.61-4.39-2.61-7.44,0-3.4.94-6.12,2.81-8.18,1.87-2.06,4.37-3.09,7.5-3.09,1.75,0,3.28.33,4.61,1v3.38c-1.47-1.07-3.05-1.61-4.73-1.61-2.03,0-3.69.76-4.99,2.27-1.3,1.51-1.95,3.49-1.95,5.95s.62,4.32,1.83,5.72c1.22,1.4,2.86,2.1,4.92,2.1,1.73,0,3.36-.6,4.88-1.79v3.14Zm-21.59-11.33c-.01-1.9-.46-3.39-1.32-4.45-.87-1.06-2.08-1.59-3.64-1.59s-2.77.56-3.82,1.67c-1.05,1.11-1.69,2.57-1.94,4.37h10.72Zm3.25,2.8h-14.01c.05,2.3.65,4.07,1.79,5.32,1.14,1.24,2.7,1.87,4.69,1.87,2.24,0,4.29-.76,6.16-2.3v3.1c-1.75,1.32-4.05,1.97-6.92,1.97s-5.01-.94-6.61-2.8c-1.61-1.88-2.41-4.51-2.41-7.9,0-3.21.88-5.82,2.63-7.84,1.75-2.02,3.93-3.03,6.52-3.03s4.6.87,6.03,2.62c1.42,1.74,2.13,4.17,2.13,7.26v1.73Zm-19.39-7.8c-.55-.44-1.36-.66-2.4-.66-1.36,0-2.5.66-3.41,1.99-.91,1.33-1.36,3.14-1.36,5.44v10.51h-3.18v-20.62h3.18v4.25h.08c.45-1.45,1.14-2.58,2.07-3.4.93-.81,1.97-1.22,3.12-1.22.83,0,1.46.1,1.9.28v3.42Zm-30.5,5.98v2.88c0,1.7.53,3.15,1.6,4.34,1.07,1.19,2.41,1.78,4.06,1.78,1.93,0,3.43-.76,4.53-2.3,1.09-1.53,1.64-3.66,1.64-6.39,0-2.3-.51-4.09-1.53-5.39-1.02-1.3-2.4-1.95-4.14-1.95-1.85,0-3.33.67-4.46,2-1.13,1.34-1.69,3.01-1.69,5.03Zm.08,8.32h-.08v12.47h-3.18v-30.1h3.18v3.62h.08c1.56-2.74,3.85-4.1,6.86-4.1,2.56,0,4.55.92,5.99,2.77,1.44,1.84,2.15,4.32,2.15,7.42,0,3.45-.81,6.21-2.42,8.29-1.61,2.07-3.83,3.11-6.63,3.11-2.57,0-4.55-1.16-5.95-3.46Zm-21.82-21.54h-2.36l-3.18-4.63-3.2,4.63h-2.19l4.16-6.69h2.58l4.19,6.69Zm-.38,12.24c-.01-1.9-.46-3.39-1.32-4.45-.87-1.06-2.09-1.59-3.64-1.59s-2.77.56-3.82,1.67c-1.04,1.11-1.69,2.57-1.94,4.37h10.72Zm3.25,2.8h-14.01c.05,2.3.65,4.07,1.79,5.32,1.14,1.24,2.7,1.87,4.69,1.87,2.24,0,4.29-.76,6.16-2.3v3.1c-1.75,1.32-4.05,1.97-6.92,1.97s-5.01-.94-6.61-2.8c-1.61-1.88-2.41-4.51-2.41-7.9,0-3.21.88-5.82,2.63-7.84,1.75-2.02,3.93-3.03,6.52-3.03s4.6.87,6.03,2.62c1.42,1.74,2.13,4.17,2.13,7.26v1.73Zm-20.75,8.54c-1.52.96-3.33,1.43-5.42,1.43-2.83,0-5.11-.96-6.86-2.87-1.73-1.91-2.61-4.39-2.61-7.44,0-3.4.94-6.12,2.81-8.18,1.87-2.06,4.37-3.09,7.5-3.09,1.75,0,3.28.33,4.61,1v3.38c-1.47-1.07-3.05-1.61-4.73-1.61-2.03,0-3.69.76-4.99,2.27-1.3,1.51-1.95,3.49-1.95,5.95s.62,4.32,1.83,5.72c1.22,1.4,2.86,2.1,4.92,2.1,1.73,0,3.36-.6,4.88-1.79v3.14Zm-28.26-17.38c-2.04,0-3.65.72-4.84,2.17-1.19,1.44-1.79,3.43-1.79,5.97s.6,4.37,1.81,5.77c1.2,1.41,2.81,2.12,4.82,2.12s3.64-.69,4.74-2.08c1.1-1.38,1.65-3.35,1.65-5.9s-.55-4.56-1.65-5.96c-1.11-1.4-2.69-2.1-4.74-2.1Zm-.23,18.81c-2.93,0-5.27-.96-7.02-2.89-1.75-1.92-2.63-4.48-2.63-7.66,0-3.46.91-6.17,2.73-8.12,1.83-1.94,4.29-2.91,7.39-2.91s5.27.94,6.93,2.84c1.66,1.89,2.49,4.52,2.49,7.87s-.89,5.92-2.68,7.9c-1.79,1.98-4.19,2.97-7.2,2.97Zm-11.7-21.1l-7.91,20.62h-3.11l-7.52-20.62h3.49l5.04,14.98c.38,1.1.61,2.06.7,2.88h.07c.13-1.04.34-1.97.62-2.81l5.27-15.06h3.35Zm-34.54,8.34c-.01-1.9-.46-3.39-1.32-4.45-.87-1.06-2.08-1.59-3.64-1.59s-2.77.56-3.82,1.67c-1.04,1.11-1.69,2.57-1.94,4.37h10.72Zm3.25,2.8h-14.01c.06,2.3.65,4.07,1.79,5.32,1.14,1.24,2.7,1.87,4.69,1.87,2.24,0,4.29-.76,6.16-2.3v3.1c-1.75,1.32-4.05,1.97-6.92,1.97s-5.01-.94-6.61-2.8c-1.61-1.88-2.41-4.51-2.41-7.9,0-3.21.88-5.82,2.63-7.84,1.75-2.02,3.93-3.03,6.52-3.03s4.6.87,6.03,2.62c1.42,1.74,2.13,4.17,2.13,7.26v1.73Zm-22.36,9.48h-3.18v-3.27h-.08c-1.31,2.5-3.36,3.75-6.12,3.75-4.73,0-7.09-2.92-7.09-8.78v-12.32h3.15v11.8c0,4.35,1.61,6.52,4.81,6.52,1.55,0,2.82-.59,3.83-1.78,1-1.19,1.5-2.74,1.5-4.67v-11.88h3.18v20.62Zm-25.66-9.29v-2.99c0-1.69-.53-3.12-1.59-4.29-1.07-1.17-2.42-1.75-4.06-1.75-1.91,0-3.43.74-4.54,2.21-1.11,1.47-1.67,3.54-1.67,6.21,0,2.37.54,4.23,1.61,5.59,1.07,1.35,2.46,2.02,4.15,2.02,1.86,0,3.34-.66,4.45-1.99,1.1-1.32,1.65-2.99,1.65-5Zm3.18,18.77h-3.18v-13.03h-.07c-1.38,2.69-3.64,4.03-6.79,4.03-2.49,0-4.49-.92-5.99-2.77-1.51-1.84-2.26-4.36-2.26-7.54,0-3.42.83-6.16,2.48-8.21,1.65-2.04,3.88-3.07,6.67-3.07s4.68,1.11,5.89,3.34h.07v-2.86h3.18v30.1Zm-36.98-19.92l-4.78.69c-1.47.21-2.59.59-3.33,1.14-.75.54-1.12,1.51-1.12,2.89,0,1,.34,1.83,1.04,2.47.69.64,1.61.96,2.76.96,1.57,0,2.88-.58,3.9-1.72,1.03-1.15,1.54-2.61,1.54-4.36v-2.06Zm3.18,10.43h-3.18v-3.22h-.07c-1.38,2.48-3.42,3.71-6.11,3.71-1.98,0-3.52-.54-4.64-1.63-1.12-1.09-1.67-2.53-1.67-4.33,0-3.85,2.18-6.1,6.55-6.72l5.95-.87c0-3.51-1.36-5.26-4.09-5.26-2.39,0-4.55.85-6.47,2.54v-3.38c1.95-1.29,4.19-1.93,6.74-1.93,4.66,0,7,2.56,7,7.69v13.41Zm-17.66-17.28c-.56-.44-1.36-.66-2.4-.66-1.36,0-2.49.66-3.41,1.99-.9,1.33-1.36,3.14-1.36,5.44v10.51h-3.18v-20.62h3.18v4.25h.08c.45-1.45,1.14-2.58,2.07-3.4.93-.81,1.97-1.22,3.12-1.22.83,0,1.45.1,1.9.28v3.42Zm-25.09-1.04c-2.04,0-3.65.72-4.84,2.17-1.19,1.44-1.79,3.43-1.79,5.97s.6,4.37,1.81,5.77c1.2,1.41,2.81,2.12,4.82,2.12s3.64-.69,4.74-2.08c1.1-1.38,1.65-3.35,1.65-5.9s-.55-4.56-1.65-5.96c-1.1-1.4-2.69-2.1-4.74-2.1Zm-.23,18.81c-2.93,0-5.27-.96-7.02-2.89-1.75-1.92-2.63-4.48-2.63-7.66,0-3.46.91-6.17,2.73-8.12,1.83-1.94,4.29-2.91,7.39-2.91s5.26.94,6.93,2.84c1.66,1.89,2.49,4.52,2.49,7.87s-.89,5.92-2.68,7.9c-1.79,1.98-4.19,2.97-7.2,2.97Zm-14.28-.48h-3.18v-11.88c0-4.3-1.54-6.44-4.61-6.44-1.55,0-2.86.62-3.91,1.86-1.06,1.24-1.59,2.84-1.59,4.78v11.68h-3.18v-30.52h3.18v13.33h.08c1.52-2.6,3.69-3.9,6.51-3.9,4.47,0,6.71,2.8,6.71,8.39v12.71Zm-36.52-10.43l-4.78.69c-1.48.21-2.59.59-3.33,1.14-.75.54-1.13,1.51-1.13,2.89,0,1,.34,1.83,1.04,2.47.69.64,1.61.96,2.76.96,1.57,0,2.88-.58,3.9-1.72,1.03-1.15,1.54-2.61,1.54-4.36v-2.06Zm3.18,10.43h-3.18v-3.22h-.07c-1.38,2.48-3.42,3.71-6.11,3.71-1.98,0-3.52-.54-4.64-1.63-1.12-1.09-1.68-2.53-1.68-4.33,0-3.85,2.18-6.1,6.55-6.72l5.95-.87c0-3.51-1.36-5.26-4.09-5.26-2.39,0-4.55.85-6.47,2.54v-3.38c1.95-1.29,4.19-1.93,6.74-1.93,4.66,0,7,2.56,7,7.69v13.41Zm-20.2,0h-3.18v-11.76c0-4.38-1.54-6.56-4.61-6.56-1.59,0-2.9.62-3.94,1.86-1.05,1.24-1.56,2.81-1.56,4.7v11.76h-3.18v-20.62h3.18v3.42h.08c1.49-2.6,3.66-3.9,6.51-3.9,2.17,0,3.83.73,4.98,2.19,1.15,1.45,1.73,3.56,1.73,6.31v12.61Zm-33.05-4.59l-3.1,9.9h-2.27l2.27-9.9h3.1Zm-6.36-12.69c-.56-.44-1.36-.66-2.4-.66-1.36,0-2.49.66-3.41,1.99-.9,1.33-1.36,3.14-1.36,5.44v10.51h-3.18v-20.62h3.18v4.25h.08c.45-1.45,1.14-2.58,2.07-3.4.93-.81,1.97-1.22,3.12-1.22.83,0,1.45.1,1.9.28v3.42Zm-18.42,5c-.01-1.9-.46-3.39-1.32-4.45-.87-1.06-2.09-1.59-3.64-1.59s-2.77.56-3.82,1.67c-1.04,1.11-1.69,2.57-1.94,4.37h10.72Zm3.25,2.8h-14.01c.06,2.3.65,4.07,1.79,5.32,1.14,1.24,2.7,1.87,4.69,1.87,2.24,0,4.29-.76,6.16-2.3v3.1c-1.75,1.32-4.05,1.97-6.92,1.97s-5.01-.94-6.61-2.8c-1.61-1.88-2.41-4.51-2.41-7.9,0-3.21.88-5.82,2.63-7.84,1.75-2.02,3.93-3.03,6.52-3.03s4.6.87,6.03,2.62c1.42,1.74,2.13,4.17,2.13,7.26v1.73Zm-22.36,9.48h-3.18v-3.27h-.08c-1.31,2.5-3.36,3.75-6.13,3.75-4.73,0-7.09-2.92-7.09-8.78v-12.32h3.15v11.8c0,4.35,1.61,6.52,4.81,6.52,1.55,0,2.82-.59,3.83-1.78,1-1.19,1.5-2.74,1.5-4.67v-11.88h3.18v20.62Zm-25.66-9.29v-2.99c0-1.69-.53-3.12-1.59-4.29-1.07-1.17-2.42-1.75-4.06-1.75-1.91,0-3.43.74-4.54,2.21-1.11,1.47-1.67,3.54-1.67,6.21,0,2.37.54,4.23,1.61,5.59,1.07,1.35,2.46,2.02,4.15,2.02,1.86,0,3.34-.66,4.45-1.99,1.1-1.32,1.65-2.99,1.65-5Zm3.18,18.77h-3.18v-13.03h-.07c-1.38,2.69-3.64,4.03-6.79,4.03-2.49,0-4.49-.92-5.99-2.77-1.51-1.84-2.26-4.36-2.26-7.54,0-3.42.83-6.16,2.48-8.21,1.65-2.04,3.88-3.07,6.67-3.07s4.68,1.11,5.89,3.34h.07v-2.86h3.18v30.1Zm-35.5-34.01h-2.36l-3.18-4.63-3.2,4.63h-2.19l4.16-6.69h2.58l4.19,6.69Zm-.38,12.24c-.01-1.9-.46-3.39-1.32-4.45-.87-1.06-2.08-1.59-3.64-1.59s-2.77.56-3.82,1.67c-1.05,1.11-1.69,2.57-1.94,4.37h10.72Zm3.25,2.8h-14.01c.05,2.3.65,4.07,1.79,5.32,1.14,1.24,2.7,1.87,4.69,1.87,2.24,0,4.29-.76,6.16-2.3v3.1c-1.75,1.32-4.06,1.97-6.92,1.97s-5.01-.94-6.61-2.8c-1.61-1.88-2.41-4.51-2.41-7.9,0-3.21.88-5.82,2.63-7.84,1.75-2.02,3.93-3.03,6.52-3.03s4.6.87,6.02,2.62c1.42,1.74,2.13,4.17,2.13,7.26v1.73Zm-20.75,8.54c-1.52.96-3.33,1.43-5.42,1.43-2.83,0-5.12-.96-6.85-2.87-1.73-1.91-2.61-4.39-2.61-7.44,0-3.4.94-6.12,2.81-8.18,1.87-2.06,4.37-3.09,7.5-3.09,1.75,0,3.28.33,4.61,1v3.38c-1.48-1.07-3.05-1.61-4.73-1.61-2.02,0-3.69.76-4.99,2.27-1.3,1.51-1.95,3.49-1.95,5.95s.62,4.32,1.83,5.72c1.22,1.4,2.86,2.1,4.92,2.1,1.73,0,3.36-.6,4.88-1.79v3.14Zm-28.26-17.38c-2.04,0-3.65.72-4.84,2.17-1.19,1.44-1.79,3.43-1.79,5.97s.6,4.37,1.81,5.77c1.2,1.41,2.81,2.12,4.82,2.12s3.64-.69,4.74-2.08c1.1-1.38,1.65-3.35,1.65-5.9s-.55-4.56-1.65-5.96c-1.1-1.4-2.69-2.1-4.74-2.1Zm-.23,18.81c-2.93,0-5.27-.96-7.03-2.89-1.75-1.92-2.63-4.48-2.63-7.66,0-3.46.91-6.17,2.73-8.12,1.83-1.94,4.29-2.91,7.39-2.91s5.26.94,6.93,2.84c1.66,1.89,2.49,4.52,2.49,7.87s-.89,5.92-2.68,7.9c-1.79,1.98-4.19,2.97-7.2,2.97Zm-11.7-21.1l-7.91,20.62h-3.12l-7.52-20.62h3.49l5.04,14.98c.38,1.1.61,2.06.7,2.88h.07c.13-1.04.34-1.97.62-2.81l5.27-15.06h3.35Zm-34.54,8.34c-.01-1.9-.46-3.39-1.32-4.45-.87-1.06-2.08-1.59-3.64-1.59s-2.77.56-3.81,1.67c-1.05,1.11-1.69,2.57-1.94,4.37h10.72Zm3.25,2.8h-14.01c.05,2.3.65,4.07,1.78,5.32,1.14,1.24,2.7,1.87,4.69,1.87,2.24,0,4.29-.76,6.17-2.3v3.1c-1.75,1.32-4.06,1.97-6.92,1.97s-5.01-.94-6.61-2.8c-1.61-1.88-2.41-4.51-2.41-7.9,0-3.21.88-5.82,2.63-7.84,1.75-2.02,3.93-3.03,6.52-3.03s4.6.87,6.03,2.62c1.42,1.74,2.13,4.17,2.13,7.26v1.73Zm-22.36,9.48h-3.18v-3.27h-.08c-1.32,2.5-3.36,3.75-6.13,3.75-4.73,0-7.09-2.92-7.09-8.78v-12.32h3.16v11.8c0,4.35,1.61,6.52,4.81,6.52,1.55,0,2.82-.59,3.83-1.78,1-1.19,1.5-2.74,1.5-4.67v-11.88h3.18v20.62Zm-25.66-9.29v-2.99c0-1.69-.53-3.12-1.59-4.29-1.06-1.17-2.42-1.75-4.06-1.75-1.91,0-3.43.74-4.54,2.21-1.11,1.47-1.67,3.54-1.67,6.21,0,2.37.54,4.23,1.61,5.59,1.07,1.35,2.46,2.02,4.15,2.02,1.86,0,3.34-.66,4.45-1.99,1.1-1.32,1.65-2.99,1.65-5Zm3.18,18.77h-3.18v-13.03h-.07c-1.38,2.69-3.65,4.03-6.79,4.03-2.49,0-4.49-.92-5.99-2.77-1.51-1.84-2.26-4.36-2.26-7.54,0-3.42.83-6.16,2.48-8.21,1.65-2.04,3.88-3.07,6.67-3.07s4.68,1.11,5.9,3.34h.07v-2.86h3.18v30.1Zm-45.88-35.78c-2.92,0-5.29,1.09-7.11,3.28-1.82,2.19-2.73,5.07-2.73,8.62s.89,6.42,2.67,8.59c1.77,2.17,4.09,3.25,6.94,3.25,3.05,0,5.45-1.03,7.21-3.1,1.76-2.07,2.63-4.96,2.63-8.68s-.85-6.76-2.55-8.84c-1.71-2.08-4.06-3.12-7.06-3.12Zm-.23,26.78c-3.94,0-7.1-1.35-9.46-4.05-2.37-2.69-3.56-6.21-3.56-10.53,0-4.64,1.21-8.35,3.63-11.11,2.41-2.76,5.71-4.15,9.87-4.15,3.84,0,6.93,1.35,9.27,4.03,2.35,2.69,3.52,6.2,3.52,10.54,0,4.71-1.2,8.43-3.6,11.18-2.4,2.74-5.62,4.1-9.65,4.1Z"/><polygon class="cls-3" points="49.26 121.76 60.22 109.92 71.21 121.72 88.4 103.14 77.41 91.34 88.36 79.5 48.26 78.57 49.26 121.76"/></g></svg>