<?xml version="1.0" encoding="UTF-8"?><svg id="Camada_2" xmlns="http://www.w3.org/2000/svg" viewBox="0 0 267.45 182.27"><defs><style>.cls-1{fill:#fff;}.cls-2{fill:#c6fe1f;}</style></defs><g id="Layer_1"><path class="cls-2" d="m79.82,137.64h6.7c3.95,0,5.92,1.29,5.92,3.86,0,1.63-.82,2.7-2.46,3.22,2.04.69,3.05,1.89,3.05,3.6,0,1.42-.53,2.5-1.58,3.24-1.05.74-2.6,1.12-4.63,1.12h-6.99v-15.04Zm9.56,2.29c-.62-.34-1.61-.52-2.97-.52h-4.55v4.53h4.8c1.25,0,2.17-.19,2.76-.57.59-.38.88-.98.88-1.79,0-.76-.31-1.31-.93-1.65Zm1.47,8.44c0-1.77-1.36-2.65-4.09-2.65h-4.91v5.2h4.85c1.46,0,2.52-.2,3.17-.6.65-.4.98-1.05.98-1.95Z"/><path class="cls-2" d="m95.81,148.89v-7.1h1.98v6.74c0,.96.23,1.66.71,2.12.47.46,1.2.68,2.18.68,1.17,0,2.21-.41,3.14-1.22.72-.65,1.07-1.43,1.07-2.34v-5.98h1.98v10.89h-1.96v-2.02c-1.22,1.57-2.8,2.36-4.74,2.36-1.4,0-2.48-.36-3.23-1.07-.75-.72-1.13-1.73-1.13-3.05Z"/><path class="cls-2" d="m118.89,149.75c0-.48-.22-.84-.67-1.07-.45-.24-1.28-.45-2.51-.63l-1.28-.19c-1.11-.17-1.99-.38-2.65-.64-.66-.26-1.13-.6-1.41-1.02-.28-.42-.42-.95-.42-1.6,0-.98.45-1.75,1.36-2.31.91-.55,2.16-.83,3.76-.83s2.81.24,3.66.71c.85.47,1.43,1.23,1.74,2.26l-1.81.23c-.41-1.11-1.6-1.66-3.58-1.66-1.01,0-1.81.14-2.4.42-.59.28-.88.66-.88,1.14s.21.84.62,1.07c.41.24,1.19.44,2.33.61l1.39.21c1.18.17,2.11.38,2.78.64s1.15.6,1.43,1.01.42.94.42,1.59c0,2.22-1.8,3.33-5.39,3.33s-5.35-1.17-5.77-3.52h1.87c.41,1.31,1.69,1.96,3.86,1.96,1.14,0,2.02-.15,2.64-.44.62-.3.94-.72.94-1.26Z"/><path class="cls-2" d="m123.51,137.64h2.11v2.13h-2.11v-2.13Zm.06,4.15h1.98v10.89h-1.98v-10.89Z"/><path class="cls-2" d="m129.01,141.79h1.96v2.02c.69-.86,1.42-1.46,2.2-1.82.78-.36,1.64-.54,2.58-.54,3.03,0,4.55,1.4,4.55,4.21v7.01h-1.98v-6.66c0-1.01-.24-1.74-.73-2.2-.48-.46-1.27-.68-2.35-.68-.58,0-1.15.11-1.72.33-.57.22-1.06.52-1.46.92-.72.65-1.07,1.43-1.07,2.34v5.96h-1.98v-10.89Z"/><path class="cls-2" d="m143.08,147.33c0-1.18.25-2.21.76-3.09.51-.88,1.21-1.56,2.11-2.05s1.94-.74,3.14-.74c1.84,0,3.27.48,4.3,1.44,1.02.96,1.54,2.31,1.54,4.03v.86h-9.86c.04,1.17.43,2.07,1.15,2.71s1.69.96,2.9.96c2.04,0,3.29-.61,3.75-1.83h1.9c-.59,2.26-2.5,3.39-5.73,3.39-1.85,0-3.31-.51-4.36-1.52s-1.58-2.4-1.58-4.17Zm2.61-2.65c-.27.51-.45,1.05-.55,1.62h7.84c-.04-1.14-.38-1.97-1.02-2.51s-1.6-.8-2.9-.8c-.9,0-1.62.15-2.16.46-.54.31-.94.72-1.21,1.22Z"/><path class="cls-2" d="m166.35,149.75c0-.48-.22-.84-.67-1.07-.45-.24-1.28-.45-2.51-.63l-1.28-.19c-1.11-.17-1.99-.38-2.65-.64-.66-.26-1.13-.6-1.41-1.02-.28-.42-.42-.95-.42-1.6,0-.98.45-1.75,1.36-2.31.91-.55,2.16-.83,3.76-.83s2.81.24,3.66.71c.85.47,1.43,1.23,1.74,2.26l-1.81.23c-.41-1.11-1.6-1.66-3.58-1.66-1.01,0-1.81.14-2.4.42-.59.28-.88.66-.88,1.14s.21.84.62,1.07c.41.24,1.19.44,2.33.61l1.39.21c1.18.17,2.11.38,2.78.64s1.15.6,1.43,1.01.42.94.42,1.59c0,2.22-1.8,3.33-5.39,3.33s-5.35-1.17-5.77-3.52h1.87c.41,1.31,1.69,1.96,3.86,1.96,1.14,0,2.02-.15,2.64-.44.62-.3.94-.72.94-1.26Z"/><path class="cls-2" d="m179.6,149.75c0-.48-.22-.84-.67-1.07-.45-.24-1.28-.45-2.51-.63l-1.28-.19c-1.11-.17-1.99-.38-2.65-.64-.66-.26-1.13-.6-1.41-1.02-.28-.42-.42-.95-.42-1.6,0-.98.45-1.75,1.36-2.31.91-.55,2.16-.83,3.76-.83s2.81.24,3.66.71c.85.47,1.43,1.23,1.74,2.26l-1.81.23c-.41-1.11-1.6-1.66-3.58-1.66-1.01,0-1.81.14-2.4.42-.59.28-.88.66-.88,1.14s.21.84.62,1.07c.41.24,1.19.44,2.33.61l1.39.21c1.18.17,2.11.38,2.78.64s1.15.6,1.43,1.01.42.94.42,1.59c0,2.22-1.8,3.33-5.39,3.33s-5.35-1.17-5.77-3.52h1.87c.41,1.31,1.69,1.96,3.86,1.96,1.14,0,2.02-.15,2.64-.44.62-.3.94-.72.94-1.26Z"/><path class="cls-2" d="m79.46,162.92h2.11v2.13h-2.11v-2.13Zm.06,4.15h1.98v10.89h-1.98v-10.89Z"/><path class="cls-2" d="m84.96,167.07h1.96v2.02c.69-.86,1.42-1.46,2.2-1.82.78-.36,1.64-.54,2.58-.54,3.03,0,4.55,1.4,4.55,4.21v7.01h-1.98v-6.66c0-1.01-.24-1.74-.73-2.2-.48-.46-1.27-.68-2.35-.68-.58,0-1.15.11-1.72.33-.57.22-1.06.52-1.46.92-.72.65-1.07,1.43-1.07,2.34v5.96h-1.98v-10.89Z"/><path class="cls-2" d="m100.5,174.59v-5.96h-2.13v-1.56h2.13v-2.97h1.98v2.97h3.88v1.56h-3.88v6.13c0,1.21.61,1.81,1.83,1.81.67,0,1.36-.11,2.04-.34l.31,1.54c-.84.28-1.74.42-2.7.42-1.19,0-2.07-.29-2.63-.87s-.84-1.49-.84-2.73Z"/><path class="cls-2" d="m108.26,172.61c0-1.18.25-2.21.76-3.09.51-.88,1.21-1.56,2.11-2.05s1.94-.74,3.14-.74c1.84,0,3.27.48,4.3,1.44,1.02.96,1.54,2.31,1.54,4.03v.86h-9.86c.04,1.17.43,2.07,1.15,2.71s1.69.96,2.9.96c2.04,0,3.29-.61,3.75-1.83h1.9c-.59,2.26-2.5,3.39-5.73,3.39-1.85,0-3.31-.51-4.36-1.52s-1.58-2.4-1.58-4.17Zm2.61-2.65c-.27.51-.45,1.05-.55,1.62h7.84c-.04-1.14-.38-1.97-1.02-2.51s-1.6-.8-2.9-.8c-.9,0-1.62.15-2.16.46-.54.31-.94.72-1.21,1.22Z"/><path class="cls-2" d="m122.96,162.92h1.98v15.04h-1.98v-15.04Z"/><path class="cls-2" d="m128.39,162.92h1.98v15.04h-1.98v-15.04Z"/><path class="cls-2" d="m133.77,162.92h2.11v2.13h-2.11v-2.13Zm.06,4.15h1.98v10.89h-1.98v-10.89Z"/><path class="cls-2" d="m149.02,176.88v-1.29c-1.07,1.43-2.67,2.15-4.8,2.15-1.1,0-2.06-.23-2.9-.7-.84-.46-1.49-1.11-1.95-1.94-.46-.83-.7-1.79-.7-2.89s.25-2.01.74-2.84c.49-.83,1.17-1.48,2.04-1.95.87-.47,1.86-.71,2.97-.71,1.05,0,1.96.17,2.71.51.75.34,1.4.87,1.95,1.6v-1.77h1.92v8.97c0,2.18-.47,3.76-1.4,4.75-.93.99-2.44,1.49-4.52,1.49-1.81,0-3.2-.27-4.15-.81-.96-.54-1.53-1.37-1.73-2.5h1.96c.21.62.62,1.06,1.22,1.34s1.5.41,2.68.41c1.36,0,2.36-.31,3-.93s.96-1.59.96-2.91Zm-.51-6.81c-.35-.54-.83-.96-1.44-1.26-.61-.3-1.31-.45-2.1-.45-1.33,0-2.37.34-3.11,1.01-.74.67-1.11,1.62-1.11,2.84s.36,2.16,1.1,2.86c.73.7,1.72,1.05,2.97,1.05.81,0,1.54-.16,2.17-.47.63-.32,1.13-.75,1.5-1.3.36-.55.55-1.18.55-1.9v-.46c0-.74-.18-1.39-.53-1.93Z"/><path class="cls-2" d="m153.48,172.61c0-1.18.25-2.21.76-3.09.51-.88,1.21-1.56,2.11-2.05s1.94-.74,3.14-.74c1.84,0,3.27.48,4.3,1.44,1.02.96,1.54,2.31,1.54,4.03v.86h-9.86c.04,1.17.43,2.07,1.15,2.71s1.69.96,2.9.96c2.04,0,3.29-.61,3.75-1.83h1.9c-.59,2.26-2.5,3.39-5.73,3.39-1.85,0-3.31-.51-4.36-1.52s-1.58-2.4-1.58-4.17Zm2.61-2.65c-.27.51-.45,1.05-.55,1.62h7.84c-.04-1.14-.38-1.97-1.02-2.51s-1.6-.8-2.9-.8c-.9,0-1.62.15-2.16.46-.54.31-.94.72-1.21,1.22Z"/><path class="cls-2" d="m168.19,167.07h1.96v2.02c.69-.86,1.42-1.46,2.2-1.82.78-.36,1.64-.54,2.58-.54,3.03,0,4.55,1.4,4.55,4.21v7.01h-1.98v-6.66c0-1.01-.24-1.74-.73-2.2-.48-.46-1.27-.68-2.35-.68-.58,0-1.15.11-1.72.33-.57.22-1.06.52-1.46.92-.72.65-1.07,1.43-1.07,2.34v5.96h-1.98v-10.89Z"/><path class="cls-2" d="m182.26,172.54c0-1.18.26-2.2.77-3.08.51-.87,1.23-1.55,2.16-2.02.93-.48,2.02-.72,3.29-.72,1.45,0,2.62.31,3.53.93.91.62,1.5,1.52,1.78,2.7l-1.96.32c-.44-1.54-1.57-2.32-3.41-2.32-1.28,0-2.28.37-2.99,1.1s-1.07,1.75-1.07,3.05.35,2.38,1.06,3.1c.71.72,1.72,1.07,3.04,1.07,2.04,0,3.23-.81,3.58-2.42h1.96c-.23,1.31-.81,2.31-1.77,3-.96.7-2.23,1.04-3.81,1.04-1.92,0-3.43-.51-4.52-1.53s-1.63-2.43-1.63-4.22Z"/><path class="cls-2" d="m196.12,172.61c0-1.18.25-2.21.76-3.09.51-.88,1.21-1.56,2.11-2.05s1.94-.74,3.14-.74c1.84,0,3.27.48,4.3,1.44,1.02.96,1.54,2.31,1.54,4.03v.86h-9.86c.04,1.17.43,2.07,1.15,2.71s1.69.96,2.9.96c2.04,0,3.29-.61,3.75-1.83h1.9c-.59,2.26-2.5,3.39-5.73,3.39-1.85,0-3.31-.51-4.36-1.52s-1.58-2.4-1.58-4.17Zm2.61-2.65c-.27.51-.45,1.05-.55,1.62h7.84c-.04-1.14-.38-1.97-1.02-2.51s-1.6-.8-2.9-.8c-.9,0-1.62.15-2.16.46-.54.31-.94.72-1.21,1.22Z"/><path class="cls-1" d="m91.56,3.15v42.54h23.11v10.27h-35.21V3.15h12.1Z"/><path class="cls-1" d="m141.29,30.95v-2.05c0-2.71-1.76-4.69-8-4.69-3.37,0-9.24.73-13.06,1.83v-9.68c5.28-1.1,11.52-1.69,15.99-1.69,10.42,0,16.8,4.99,16.8,15.04v26.26h-9.98l-.88-3.96h-.29c-4.33,3.08-8.44,4.55-12.4,4.55-7.04,0-12.62-4.4-12.62-13.13,0-7.41,5.43-12.47,15.7-12.47h8.73Zm0,7.63h-6.67c-4.11,0-5.94,1.39-5.94,3.96,0,2.93,2.05,4.33,4.84,4.33s5.65-.88,7.78-2.13v-6.16Z"/><path class="cls-1" d="m186.04,55.97v-26.77c0-2.64-.88-3.96-3.74-3.96-2.64,0-6.23,1.47-9.24,3.01v27.73h-11.74V15.55h10.93v4.03h.29c4.77-2.93,9.39-4.91,13.35-4.91,7.12,0,11.88,3.37,11.88,12.25v29.05h-11.74Z"/><path class="cls-1" d="m225.28,14.67c1.76,0,3.59.15,5.5.37V0h11.66v55.97h-9.61l-1.03-2.27c-3.37,1.91-7.34,3.01-11.22,3.01-8.44,0-16.36-5.35-16.36-19.8,0-17.09,9.17-22.23,21.05-22.23Zm-1.91,32.05c2.05,0,4.55-.66,7.34-1.91v-20.17c-1.54-.22-3.01-.29-4.25-.29-7.04,0-10.27,3.3-10.27,11.88,0,7.12,2.64,10.49,7.19,10.49Z"/><path class="cls-1" d="m104.69,113.75c2.42,0,4.18-.29,6.82-.81v-18.19h12.03v25.6c-5.5,1.91-12.91,3.74-20.61,3.74-18.04,0-25.53-10.71-25.53-27.58,0-15.55,9.54-26.99,28.61-26.99,5.28,0,11.22.66,15.77,1.83l-.07,10.64c-4.55-1.32-11.22-2.2-15.26-2.2-8.29,0-16.72,4.69-16.72,17.09,0,11,5.79,16.87,14.96,16.87Z"/><path class="cls-1" d="m156.77,94.6c-4.84.81-8.88,2.2-13.79,3.89v24.72h-11.74v-40.42h11.08v6.31c4.03-2.64,8.44-6.38,14.45-6.53v12.03Z"/><path class="cls-1" d="m180.31,124.09c-11.96,0-20.69-6.67-20.69-21.05s8.73-21.12,20.69-21.12,20.76,6.9,20.76,21.12-8.8,21.05-20.76,21.05Zm.07-32.2c-6.31,0-8.73,3.96-8.73,11.15s2.42,11.08,8.73,11.08,8.66-3.89,8.66-11.08-2.35-11.15-8.66-11.15Z"/><path class="cls-1" d="m219.04,82.79v27.14c0,2.64,1.61,4.03,5.06,4.03,2.49,0,4.99-1.03,8.07-2.79-.22-1.61-.29-3.67-.29-5.35v-23.03h11.08v26.41c.07,3.45,2.42,4.77,6.09,4.77,1.17,0,6.67,0,6.67-5.13v-26.04h11.74v26.33c0,11.74-9.02,14.96-18.56,14.96-5.87,0-10.78-1.54-14.3-5.79-3.96,3.74-8.22,5.79-13.35,5.79-9.68,0-13.94-5.13-13.94-15.7v-25.6h11.74Z"/><path class="cls-2" d="m43.46,103.05s0,0,0,0l10.88,11.12c6-5.8,9.52-13.83,9.52-22.67h-31.93l11.54,11.54Z"/><path class="cls-1" d="m0,75.45v21.86c0,5.81,4.71,10.52,10.52,10.52h5.08v-16.56L0,75.45Z"/><path class="cls-1" d="m15.6,107.83v5.06c0,5.82,4.72,10.54,10.54,10.54h21.18l-15.39-15.6H15.6Z"/><path class="cls-1" d="m42.85,79.97h18.68c-1.43-2.28-2.85-4.46-4.05-6.29-5.46-8.26-14.48-13.68-24.38-14.08-.43-.02-.86-.03-1.3-.03-8.69,0-16.57,3.5-22.34,9.15l10.96,11.17c2.93-2.88,6.95-4.66,11.38-4.66.28,0,.55,0,.83.02,3.9.2,7.52,1.95,10.22,4.7Z"/></g></svg>